<?xml version="1.0" encoding="utf-8"?>
<!-- Generator: Adobe Illustrator 23.1.1, SVG Export Plug-In . SVG Version: 6.00 Build 0)  -->
<svg version="1.1" id="Capa_1" xmlns="http://www.w3.org/2000/svg" xmlns:xlink="http://www.w3.org/1999/xlink" x="0px" y="0px"
	 viewBox="0 0 458.8 458.8" style="enable-background:new 0 0 458.8 458.8;" xml:space="preserve">
<style type="text/css">
	.st0{fill:#007BFF;}
</style>
<g>
	<g>
		<path class="st0" d="M456.2,330.6c-3.4-8.1-9.8-14.5-17.9-17.9V196.4c1.5-2.3,2.6-4.9,3.1-7.7c0-5.2-3-10-7.7-12.3L225.8,83.3
			c-3.2-1.6-7-1.6-10.2,0L7.7,176.5c-5,2-8.1,7-7.7,12.3c0,5.3,3.6,9.9,8.7,11.3l71.2,24.6v92.2c0,4,1.9,7.8,5.1,10.2
			c3.4,2.5,7.8,3.1,11.8,1.5c79.8-29.7,167.5-29.7,247.3,0l4.6,1c2.6-0.1,5.1-1,7.2-2.6c3.6-2.2,5.7-6.1,5.6-10.2v-92.7l51.2-16.9
			v105.5c-17,7.1-25,26.6-17.9,43.5s26.6,25,43.5,17.9C455.3,367,463.3,347.6,456.2,330.6z"/>
	</g>
</g>
</svg>

<svg version="1.1" id="Capa_1" xmlns="http://www.w3.org/2000/svg" xmlns:xlink="http://www.w3.org/1999/xlink" x="0px" y="0px" viewBox="0 0 458.8 458.8" style="enable-background:new 0 0 458.8 458.8;" xml:space="preserve">
<path class="st0" d="M456.2,330.6c-3.4-8.1-9.8-14.5-17.9-17.9V196.4c1.5-2.3,2.6-4.9,3.1-7.7c0-5.2-3-10-7.7-12.3L225.8,83.3
			c-3.2-1.6-7-1.6-10.2,0L7.7,176.5c-5,2-8.1,7-7.7,12.3c0,5.3,3.6,9.9,8.7,11.3l71.2,24.6v92.2c0,4,1.9,7.8,5.1,10.2
			c3.4,2.5,7.8,3.1,11.8,1.5c79.8-29.7,167.5-29.7,247.3,0l4.6,1c2.6-0.1,5.1-1,7.2-2.6c3.6-2.2,5.7-6.1,5.6-10.2v-92.7l51.2-16.9
			v105.5c-17,7.1-25,26.6-17.9,43.5s26.6,25,43.5,17.9C455.3,367,463.3,347.6,456.2,330.6z"/>
</svg>
